power_kick1_modified_grf.mot
version=1
nRows=31
nColumns=19
inDegrees=yes
endheader
time	ground_force_r_vx	ground_force_r_vy	ground_force_r_vz	ground_force_r_px	ground_force_r_py	ground_force_r_pz	ground_force_l_vx	ground_force_l_vy	ground_force_l_vz	ground_force_l_px	ground_force_l_py	ground_force_l_pz	ground_torque_r_x	ground_torque_r_y	ground_torque_r_z	ground_torque_l_x	ground_torque_l_y	ground_torque_l_z
0.00000000	    3.92927236	   21.84427571	   13.56034123	    0.39522817	    0.00000000	   -0.06914295	    0.48751631	    1.14298342	   -1.01352227	   -0.44793438	    0.00000000	   -0.17093404	    0.00000000	    4.04859253	    0.00000000	    0.00000000	   -0.07780076	    0.00000000	
0.00025000	    3.92532490	   21.86816558	   13.57753709	    0.39523524	    0.00000000	   -0.06917456	    0.49034084	    1.14746745	   -1.01854869	   -0.44785443	    0.00000000	   -0.17097355	    0.00000000	    4.04753957	    0.00000000	    0.00000000	   -0.07855411	    0.00000000	
0.00050000	    3.92137760	   21.89205560	   13.59473304	    0.39524231	    0.00000000	   -0.06920617	    0.49316529	    1.15195127	   -1.02357493	   -0.44777449	    0.00000000	   -0.17101306	    0.00000000	    4.04648661	    0.00000000	    0.00000000	   -0.07930744	    0.00000000	
0.00075000	    3.91743070	   21.91594630	   13.61192920	    0.39524938	    0.00000000	   -0.06923778	    0.49598949	    1.15643452	   -1.02860066	   -0.44769454	    0.00000000	   -0.17105256	    0.00000000	    4.04543360	    0.00000000	    0.00000000	   -0.08006073	    0.00000000	
0.00100000	    3.91348443	   21.93983879	   13.62912574	    0.39525646	    0.00000000	   -0.06926939	    0.49881323	    1.16091667	   -1.03362542	   -0.44761461	    0.00000000	   -0.17109206	    0.00000000	    4.04438052	    0.00000000	    0.00000000	   -0.08081395	    0.00000000	
0.00125000	    3.90953904	   21.96373494	   13.64632296	    0.39526353	    0.00000000	   -0.06930099	    0.50163618	    1.16539699	   -1.03864855	   -0.44753468	    0.00000000	   -0.17113154	    0.00000000	    4.04332724	    0.00000000	    0.00000000	   -0.08156704	    0.00000000	
0.00150000	    3.90559480	   21.98763711	   13.66352131	    0.39527060	    0.00000000	   -0.06933259	    0.50445804	    1.16987481	   -1.04366942	   -0.44745477	    0.00000000	   -0.17117100	    0.00000000	    4.04227358	    0.00000000	    0.00000000	   -0.08231996	    0.00000000	
0.00175000	    3.90165200	   22.01154776	   13.68072180	    0.39527765	    0.00000000	   -0.06936419	    0.50727871	    1.17435014	   -1.04868778	   -0.44737488	    0.00000000	   -0.17121043	    0.00000000	    4.04121945	    0.00000000	    0.00000000	   -0.08307269	    0.00000000	
0.00200000	    3.89771093	   22.03546922	   13.69792560	    0.39528470	    0.00000000	   -0.06939578	    0.51009807	    1.17882302	   -1.05370340	   -0.44729500	    0.00000000	   -0.17124983	    0.00000000	    4.04016490	    0.00000000	    0.00000000	   -0.08382522	    0.00000000	
0.00225000	    3.89377177	   22.05940337	   13.71513392	    0.39529176	    0.00000000	   -0.06942736	    0.51291601	    1.18329345	   -1.05871602	   -0.44721514	    0.00000000	   -0.17128920	    0.00000000	    4.03911004	    0.00000000	    0.00000000	   -0.08457755	    0.00000000	
0.00250000	    3.88983462	   22.08335225	   13.73234813	    0.39529884	    0.00000000	   -0.06945891	    0.51573269	    1.18776201	   -1.06372594	   -0.44713529	    0.00000000	   -0.17132853	    0.00000000	    4.03805501	    0.00000000	    0.00000000	   -0.08532973	    0.00000000	
0.00275000	    3.88589958	   22.10731801	   13.74956990	    0.39530596	    0.00000000	   -0.06949041	    0.51854857	    1.19222979	   -1.06873404	   -0.44705543	    0.00000000	   -0.17136782	    0.00000000	    4.03699996	    0.00000000	    0.00000000	   -0.08608192	    0.00000000	
0.00300000	    3.88196671	   22.13130272	   13.76680099	    0.39531313	    0.00000000	   -0.06952186	    0.52136407	    1.19669785	   -1.07374118	   -0.44697554	    0.00000000	   -0.17140708	    0.00000000	    4.03594506	    0.00000000	    0.00000000	   -0.08683423	    0.00000000	
0.00325000	    3.87803611	   22.15530827	   13.78404326	    0.39532038	    0.00000000	   -0.06955324	    0.52417957	    1.20116707	   -1.07874803	   -0.44689561	    0.00000000	   -0.17144630	    0.00000000	    4.03489053	    0.00000000	    0.00000000	   -0.08758680	    0.00000000	
0.00350000	    3.87410777	   22.17933677	   13.80129871	    0.39532773	    0.00000000	   -0.06958453	    0.52699533	    1.20563814	   -1.08375513	   -0.44681562	    0.00000000	   -0.17148549	    0.00000000	    4.03383657	    0.00000000	    0.00000000	   -0.08833973	    0.00000000	
0.00375000	    3.87018169	   22.20339041	   13.81856961	    0.39533518	    0.00000000	   -0.06961572	    0.52981155	    1.21011157	   -1.08876283	   -0.44673556	    0.00000000	   -0.17152464	    0.00000000	    4.03278344	    0.00000000	    0.00000000	   -0.08909312	    0.00000000	
0.00400000	    3.86625783	   22.22747138	   13.83585826	    0.39534277	    0.00000000	   -0.06964681	    0.53262834	    1.21458767	   -1.09377129	   -0.44665542	    0.00000000	   -0.17156375	    0.00000000	    4.03173139	    0.00000000	    0.00000000	   -0.08984705	    0.00000000	
0.00425000	    3.86233611	   22.25158196	   13.85316699	    0.39535050	    0.00000000	   -0.06967777	    0.53544581	    1.21906679	   -1.09878070	   -0.44657517	    0.00000000	   -0.17160281	    0.00000000	    4.03068074	    0.00000000	    0.00000000	   -0.09060160	    0.00000000	
0.00450000	    3.85841643	   22.27572477	   13.87049829	    0.39535839	    0.00000000	   -0.06970860	    0.53826426	    1.22354994	   -1.10379162	   -0.44649483	    0.00000000	   -0.17164182	    0.00000000	    4.02963184	    0.00000000	    0.00000000	   -0.09135687	    0.00000000	
0.00475000	    3.85449870	   22.29990287	   13.88785458	    0.39536648	    0.00000000	   -0.06973929	    0.54108399	    1.22803820	   -1.10880459	   -0.44641436	    0.00000000	   -0.17168078	    0.00000000	    4.02858500	    0.00000000	    0.00000000	   -0.09211297	    0.00000000	
0.00500000	    3.85058283	   22.32411974	   13.90523826	    0.39537475	    0.00000000	   -0.06976983	    0.54390521	    1.23253242	   -1.11382001	   -0.44633377	    0.00000000	   -0.17171967	    0.00000000	    4.02754050	    0.00000000	    0.00000000	   -0.09286999	    0.00000000	
0.00525000	    3.84666872	   22.34837928	   13.92265175	    0.39538324	    0.00000000	   -0.06980023	    0.54672805	    1.23703328	   -1.11883806	   -0.44625304	    0.00000000	   -0.17175850	    0.00000000	    4.02649857	    0.00000000	    0.00000000	   -0.09362800	    0.00000000	
0.00550000	    3.84275611	   22.37268574	   13.94009740	    0.39539194	    0.00000000	   -0.06983047	    0.54955254	    1.24154125	   -1.12385879	   -0.44617217	    0.00000000	   -0.17179725	    0.00000000	    4.02545942	    0.00000000	    0.00000000	   -0.09438707	    0.00000000	
0.00575000	    3.83884475	   22.39704341	   13.95757752	    0.39540086	    0.00000000	   -0.06986055	    0.55237865	    1.24605663	   -1.12888205	   -0.44609116	    0.00000000	   -0.17183592	    0.00000000	    4.02442323	    0.00000000	    0.00000000	   -0.09514723	    0.00000000	
0.00600000	    3.83493446	   22.42145671	   13.97509446	    0.39541002	    0.00000000	   -0.06989048	    0.55520625	    1.25057951	   -1.13390751	   -0.44600999	    0.00000000	   -0.17187449	    0.00000000	    4.02339017	    0.00000000	    0.00000000	   -0.09590852	    0.00000000	
0.00625000	    3.83102521	   22.44593068	   13.99265056	    0.39541941	    0.00000000	   -0.06992024	    0.55803512	    1.25510978	   -1.13893467	   -0.44592867	    0.00000000	   -0.17191295	    0.00000000	    4.02236036	    0.00000000	    0.00000000	   -0.09667096	    0.00000000	
0.00650000	    3.82711728	   22.47047076	   14.01024823	    0.39542905	    0.00000000	   -0.06994985	    0.56086495	    1.25964716	   -1.14396288	   -0.44584721	    0.00000000	   -0.17195128	    0.00000000	    4.02133389	    0.00000000	    0.00000000	   -0.09743455	    0.00000000	
0.00675000	    3.82321106	   22.49508258	   14.02788991	    0.39543892	    0.00000000	   -0.06997930	    0.56369537	    1.26419114	   -1.14899127	   -0.44576558	    0.00000000	   -0.17198946	    0.00000000	    4.02031079	    0.00000000	    0.00000000	   -0.09819927	    0.00000000	
0.00700000	    3.81930698	   22.51977237	   14.04557815	    0.39544905	    0.00000000	   -0.07000861	    0.56652589	    1.26874104	   -1.15401881	   -0.44568381	    0.00000000	   -0.17202749	    0.00000000	    4.01929108	    0.00000000	    0.00000000	   -0.09896509	    0.00000000	
0.00725000	    3.81540560	   22.54454682	   14.06331550	    0.39545941	    0.00000000	   -0.07003778	    0.56935594	    1.27329598	   -1.15904429	   -0.44560189	    0.00000000	   -0.17206534	    0.00000000	    4.01827470	    0.00000000	    0.00000000	   -0.09973197	    0.00000000	
0.00750000	    3.81150748	   22.56941296	   14.08110438	    0.39547000	    0.00000000	   -0.07006682	    0.57218488	    1.27785485	   -1.16406632	   -0.44551983	    0.00000000	   -0.17210298	    0.00000000	    4.01726160	    0.00000000	    0.00000000	   -0.10049985	    0.00000000	
